<?xml version="1.0" encoding="UTF-8"?>
<svg version="1.1" xmlns="http://www.w3.org/2000/svg" width="512" height="512">
<path d="M0 0 C20.54461889 17.86100963 32.7542463 42.01777212 35.52734375 69.1484375 C36.06513602 78.44739533 35.95067893 87.77140194 35.92578125 97.08203125 C35.92780716 99.77230836 35.93071996 102.46257325 35.93447876 105.15284729 C35.93990013 110.76641344 35.93284172 116.37986027 35.91845703 121.9934082 C35.90214548 128.43220422 35.90742277 134.87071488 35.92393625 141.30950397 C35.93766512 146.89142262 35.93941558 152.47325668 35.93162024 158.05518681 C35.92700455 161.36544817 35.9273698 164.67555038 35.93622971 167.98580742 C35.97299467 185.57890308 35.94189034 203.21410935 29.40234375 219.8359375 C29.10376465 220.61573975 28.80518555 221.39554199 28.49755859 222.19897461 C23.61194746 234.45548601 16.82934473 244.77319242 7.52734375 254.1484375 C6.70234375 255.0146875 5.87734375 255.8809375 5.02734375 256.7734375 C4.20234375 257.5571875 3.37734375 258.3409375 2.52734375 259.1484375 C1.91890625 259.74011719 1.31046875 260.33179688 0.68359375 260.94140625 C-20.82080725 281.08230356 -48.02088626 286.99254386 -76.54248047 286.28027344 C-98.38489552 285.29752855 -117.63700423 275.47161536 -134.47265625 262.1484375 C-135.46072266 261.39433594 -135.46072266 261.39433594 -136.46875 260.625 C-156.05047854 244.97770652 -167.33306611 218.91625045 -170.26624298 194.53068352 C-170.67888323 189.76834149 -170.62891082 184.99605094 -170.63378906 180.21899414 C-170.63875397 179.04544373 -170.64371887 177.87189331 -170.64883423 176.66278076 C-170.66339252 172.79471236 -170.67024862 168.92668501 -170.67578125 165.05859375 C-170.678521 163.71672479 -170.6813777 162.37485606 -170.68434906 161.03298759 C-170.6980038 154.72132302 -170.70767856 148.40967126 -170.71155095 142.09799296 C-170.71601747 134.86146583 -170.73350812 127.62512891 -170.76255155 120.38865954 C-170.78432738 114.76364684 -170.79426373 109.13868702 -170.79559207 103.51363271 C-170.79662945 100.16911676 -170.80380376 96.82492107 -170.82041168 93.48042488 C-170.98011616 58.83625116 -164.27933642 30.05842134 -140.03515625 4.3359375 C-101.32542825 -32.25397206 -40.71162805 -34.05140424 0 0 Z " fill="#FF8848" transform="translate(323.47265625,23.8515625)"/>
<path d="M0 0 C17.49 0 34.98 0 53 0 C53.66 7.59 54.32 15.18 55 23 C62.95474271 58.35441206 81.09882712 90.19812173 111.97021484 110.28173828 C116.52520376 113.09475019 121.21121377 115.61027659 126 118 C126.64549805 118.32339355 127.29099609 118.64678711 127.95605469 118.97998047 C158.81199551 134.1287116 194.54601783 136.02322004 227.15234375 125.37109375 C232.99074972 123.34593733 238.51765758 120.8477185 244 118 C244.63824707 117.66983887 245.27649414 117.33967773 245.93408203 116.99951172 C255.1256497 112.19347765 263.22401124 106.9294581 271 100 C271.83917969 99.29230469 272.67835938 98.58460938 273.54296875 97.85546875 C297.22555091 77.47743294 312.30849861 46.87437522 316 16 C316.33 10.72 316.66 5.44 317 0 C334.49 0 351.98 0 370 0 C368.826847 23.46305999 368.826847 23.46305999 367.3125 32 C367.05194824 33.49781006 367.05194824 33.49781006 366.78613281 35.02587891 C363.75173891 51.58883143 358.36928015 66.89262105 351 82 C350.68836914 82.64775391 350.37673828 83.29550781 350.05566406 83.96289062 C337.49564624 109.77405953 317.94244186 131.96996748 295 149 C294.45972168 149.40105957 293.91944336 149.80211914 293.36279297 150.21533203 C269.05918837 168.0519473 241.03816401 179.66242622 211 183 C211 206.1 211 229.2 211 253 C228.49 253 245.98 253 264 253 C264 270.16 264 287.32 264 305 C211.86 305 159.72 305 106 305 C106 287.84 106 270.68 106 253 C123.49 253 140.98 253 159 253 C159 229.9 159 206.8 159 183 C154.38 182.34 149.76 181.68 145 181 C141.46431198 180.15611185 138.03502257 179.2858964 134.5625 178.25 C133.66635986 177.98687012 132.77021973 177.72374023 131.84692383 177.45263672 C85.75281922 163.60915194 46.2773037 132.09968576 23.08569336 89.86865234 C22.04160725 87.92010603 21.01596874 85.96333831 20 84 C19.68724121 83.4004248 19.37448242 82.80084961 19.05224609 82.18310547 C6.04215534 56.8776116 0 28.37503617 0 0 Z " fill="#FF4C4B" transform="translate(71,207)"/>
<path d="M0 0 C16.38692959 0 16.38692959 0 22.8125 1.5625 C23.93652222 1.82812744 23.93652222 1.82812744 25.08325195 2.09912109 C51.23323826 8.65647599 73.80170815 24.88618208 88.12109375 47.79345703 C101.9191036 70.86584095 103.46861345 94.69090113 103.3984375 120.93359375 C103.40046341 123.62387086 103.40337621 126.31413575 103.40713501 129.00440979 C103.41255638 134.61797594 103.40549797 140.23142277 103.39111328 145.8449707 C103.37480173 152.28376672 103.38007902 158.72227738 103.3965925 165.16106647 C103.41032137 170.74298512 103.41207183 176.32481918 103.40427649 181.90674931 C103.3996608 185.21701067 103.40002605 188.52711288 103.40888596 191.83736992 C103.44565092 209.43046558 103.41454659 227.06567185 96.875 243.6875 C96.42713135 244.85720337 96.42713135 244.85720337 95.97021484 246.05053711 C91.08460371 258.30704851 84.30200098 268.62475492 75 278 C74.175 278.86625 73.35 279.7325 72.5 280.625 C71.2625 281.800625 71.2625 281.800625 70 283 C69.3915625 283.59167969 68.783125 284.18335938 68.15625 284.79296875 C49.41941923 302.34177583 25.21133468 310 0 310 C0 207.7 0 105.4 0 0 Z " fill="#FF4C4B" transform="translate(256,0)"/>
<path d="M0 0 C17.49 0 34.98 0 53 0 C53.66 7.59 54.32 15.18 55 23 C62.95474271 58.35441206 81.09882712 90.19812173 111.97021484 110.28173828 C116.52520376 113.09475019 121.21121377 115.61027659 126 118 C126.64549805 118.32339355 127.29099609 118.64678711 127.95605469 118.97998047 C146.26241581 127.9674926 164.49872676 130.43734085 185 133 C185 189.76 185 246.52 185 305 C158.93 305 132.86 305 106 305 C106 287.84 106 270.68 106 253 C123.49 253 140.98 253 159 253 C159 229.9 159 206.8 159 183 C154.38 182.34 149.76 181.68 145 181 C141.46431198 180.15611185 138.03502257 179.2858964 134.5625 178.25 C133.66635986 177.98687012 132.77021973 177.72374023 131.84692383 177.45263672 C85.75281922 163.60915194 46.2773037 132.09968576 23.08569336 89.86865234 C22.04160725 87.92010603 21.01596874 85.96333831 20 84 C19.68724121 83.4004248 19.37448242 82.80084961 19.05224609 82.18310547 C6.04215534 56.8776116 0 28.37503617 0 0 Z " fill="#FF8848" transform="translate(71,207)"/>
</svg>
