<?xml version="1.0" encoding="UTF-8"?>
<svg version="1.1" viewBox="0 0 2048 2048" width="1280" height="1280" xmlns="http://www.w3.org/2000/svg">
<path transform="translate(1016,78)" d="m0 0h16l23 1 37 4 36 7 25 7 24 8 20 8 24 11 24 13 24 15 18 13 14 11 14 12 12 11 7 7 6 5 7 8 12 13 11 14 8 10 12 17 11 17 9 16 12 23 10 22 11 30 8 28 6 27 4 25 2 17 1 15v202h12l17 3 12 4 17 9 13 11 9 10 8 13 5 10 4 13 2 13v83l-3 10-6 8-6 5-10 4h-12l-10-4-8-7-5-10-1-3-1-79-2-10-5-10-9-7-7-3-5-1h-899l-9 3-9 6-6 9-3 10-1 503h341l1-15 12-105 2-17-1-7-8-16-6-16-4-16-2-16v-16l3-22 6-21 10-21 11-16 7-9h2l2-4 13-12 15-10 19-10 18-6 15-3 8-1h28l18 3 17 5 18 8 16 10 13 11 13 13 11 15 6 10 8 18 5 17 3 18v29l-4 22-7 20-9 18 1 15 14 126 340 1v-214l1-79 4-10 7-8 8-5 13-2 12 3 8 6 7 10 2 8v291h368l21 3 20 7 17 9 12 9 10 9 7 7 11 15 9 17 7 20 2 4h1v480h-2l-4 14-6 16-9 15-8 11-16 16-14 10-17 9-18 6-15 3-9 1h-1462l-9-4-8-7-5-8-2-7v-8l4-12 7-8 11-6 7-1h1243l213-1 16-4 12-6 10-8 8-9 8-16 3-14v-443l-4-16-6-12-7-9-9-8-10-6-15-5-7-1h-1810l-16 4-13 7-12 11-7 10-5 11-3 13-1 21v411l1 15 3 12 6 12 7 9 7 7 11 7 13 5 8 2 218 1 11 2 8 5 8 9 3 8v13l-3 8-7 9-8 5-8 2h-223l-19-3-14-4-21-10-13-9-12-11-8-8-10-14-8-14-7-19-4-14v-469l7-23 7-16 7-11 9-12 4-5h2l2-4 11-9 15-10 14-7 18-6 10-2 10-1h369v-510l4-18 7-16 11-16 12-12 13-9 13-6 13-4 15-2h10v-188l2-32 4-30 6-29 6-22 11-33 10-23 12-25 10-18 14-22 13-18 11-14 12-14 11-12 5-6h2v-2h2v-2h2v-2l8-7 14-13 14-11 17-13 15-10 21-13 18-10 28-13 23-9 24-8 36-9 30-5 28-3zm-1 61-31 2-23 3-29 6-27 8-22 8-29 13-22 12-22 14-12 9-13 10-14 12-15 14-8 8-7 8-9 10-11 14-10 14-10 15-8 14-10 19-9 19-9 24-8 26-6 26-3 16-3 31-1 28v173h136l1-191 2-19 5-25 6-20 6-16 11-23 12-19 9-12 8-10 11-12 11-11 14-11 12-9 20-12 25-12 27-9 29-6 20-2h26l29 3 23 5 30 10 25 12 19 12 16 12 10 9 8 7 8 8 7 8 10 13 12 18 7 12 11 24 8 24 5 22 3 23 1 24v173h136v-198l-3-31-4-23-6-26-8-25-11-28-9-19-13-23-11-17-10-14-13-16-9-11-28-28-11-9-12-10-17-12-17-11-21-12-23-11-25-10-25-8-30-7-26-4-20-2-20-1zm2 197-21 2-20 4-18 6-11 5-14 7-14 9-14 11-11 10v2h-2l-7 8-13 17-6 10-10 19-7 20-5 19-2 15-1 17v178h365v-192l-3-22-7-24-7-17-9-17-12-17-12-14-8-8-11-9-15-11-27-14-24-8-20-4-21-2zm-1 654-16 3-16 7-10 7-10 9-9 12-7 14-4 12-1 6v23l4 15 6 14 8 16 2 7v20l-11 96-4 37h151l-1-14-13-117v-22l4-12 8-16 5-12 3-14v-20l-4-16-5-12-6-10-9-10-9-8-14-8-14-5-11-2z"/>
<path transform="translate(1707,1467)" d="m0 0h11l11 4 8 7 5 8 2 10 1 95 18-10 24-14 26-15 14-8 8-3h12l10 4 8 7 5 8 2 6v11l-4 10-8 9-13 8-28 16-26 15-14 8-4 1 3 3 52 30 24 14 9 7 6 8 3 8v11l-4 10-8 9-10 5-4 1h-9l-10-3-28-16-24-14-26-15-4-2-1 93-2 11-5 9-8 7-7 3-13 1-10-3-8-6-6-9-2-5-1-9v-88l1-5-20 11-24 14-28 16-15 8-7 2h-9l-11-4-8-7-6-12-1-4v-7l3-10 6-8 9-7 28-16 26-15 21-12 4-1-4-4-78-45-8-7-6-11-1-5v-7l4-12 9-10 11-5h13l12 5 78 45 1-95 2-9 5-9 8-7z"/>
<path transform="translate(788,1467)" d="m0 0h11l11 4 9 8 4 8 2 9v96l26-15 24-14 19-11 16-9 6-2h12l9 3 7 5 6 9 3 8v10l-3 9-6 8-6 5-24 14-26 15-24 14-6 3h-2l3 3 28 16 26 15 22 13 9 7 5 6 4 10v11l-4 10-8 9-10 5-4 1h-10l-12-5-25-14-41-24-13-8-1 92-1 11-6 11-8 7-7 3-13 1-10-3-8-6-6-9-2-6-1-33v-67l-12 6-24 14-28 16-17 10-12 4h-9l-11-4-7-6-6-10-1-3v-15l4-9 7-8 27-16 28-16 24-14 5-3-3-3-78-45-8-7-6-12v-15l4-9 7-8 12-6h13l12 5 28 16 27 16 18 10 4 3h2v-91l2-13 6-10 9-7z"/>
<path transform="translate(329,1467)" d="m0 0h11l11 4 7 6 6 10 1 4v101l25-14 17-10 24-14 15-9 11-4h12l10 4 8 7 4 7 2 5 1 10-3 10-5 8-7 6-28 16-24 14-26 15-4 3 17 9 15 9 28 16 20 12 9 7 6 10 2 8-1 10-6 12-8 7-12 4h-9l-13-5-26-15-24-14-26-15-3-1-1 100-3 8-7 9-8 5-9 2h-8l-10-3-10-9-5-10-1-5v-98l-23 13-24 14-26 15-13 7-7 2h-9l-11-4-8-7-6-10-1-4v-11l4-11 6-7 15-9 19-11 26-15 24-14 2-2-26-15-24-14-28-16-9-7-6-8-3-8v-11l4-11 6-7 8-5 6-2h13l10 4 24 14 28 16 24 14 5 3v-99l4-11 7-8 7-5z"/>
<path transform="translate(1248,1467)" d="m0 0h11l11 4 6 5 6 9 2 7v100l23-13 24-14 26-15 11-6 8-3h12l10 4 8 7 5 9 1 3v15l-5 10-5 6-18 11-28 16-24 14-16 9 4 3 16 9 24 14 26 15 14 9 5 4 5 7 2 6v15l-5 10-4 5-9 6-8 2h-9l-11-4-28-16-24-14-28-16-1-1-1 100-4 11-6 7-7 4-10 3h-8l-10-3-10-9-5-9-1-6v-98l-23 13-24 14-26 15-14 7-6 2h-9l-10-3-10-9-5-9-1-4v-11l4-11 7-8 24-14 28-16 24-14 9-5-5-4-28-16-48-28-10-9-4-8-1-4v-11l4-11 7-8 12-6h14l10 4 24 14 21 12 36 21v-99l4-11 5-7 9-6z"/>
</svg>
