<?xml version="1.0" encoding="UTF-8"?>
<svg version="1.1" xmlns="http://www.w3.org/2000/svg" width="512" height="512">
<path d="M0 0 C4.8846525 2.26787438 7.73212562 5.1153475 10 10 C10.89903273 18.20101718 9.5546222 24.84019603 6.3984375 32.359375 C6.01476013 33.32105087 5.63108276 34.28272675 5.23577881 35.27354431 C3.96759227 38.44027439 2.67121181 41.59465029 1.375 44.75 C0.46509471 47.00929158 -0.44257274 49.26948555 -1.34814453 51.53051758 C-3.25414602 56.28442468 -5.16971871 61.03430971 -7.09179688 65.78173828 C-11.31113289 76.22580817 -15.40812591 86.71771544 -19.51239014 97.20739746 C-21.81250695 103.08189066 -24.12153021 108.95288122 -26.4296875 114.82421875 C-27.35909036 117.1892743 -28.28845235 119.55434591 -29.21777344 121.91943359 C-29.67744507 123.08923767 -30.1371167 124.25904175 -30.61071777 125.46429443 C-34.28331659 134.81101163 -37.95509791 144.15805004 -41.62701416 153.5050354 C-43.91796784 159.33670661 -46.20898726 165.16835199 -48.5 171 C-49.41666698 173.33333321 -50.33333365 175.66666654 -51.25 178 C-122.75 360.00000001 -122.75 360.00000001 -124.1247406 363.4992981 C-125.04230969 365.83495628 -125.95984096 368.17062931 -126.87733459 370.50631714 C-129.15488582 376.30420213 -131.43307256 382.10183573 -133.71264648 387.89892578 C-138.00682603 398.82127834 -142.29438808 409.74611615 -146.56069946 420.67938232 C-148.32759076 425.20724 -150.0975458 429.73389822 -151.8681736 434.26029587 C-153.07478009 437.34554442 -154.27907246 440.43166617 -155.48022461 443.51904297 C-156.80677948 446.92843713 -158.13912286 450.33551799 -159.47265625 453.7421875 C-159.85817154 454.73757538 -160.24368683 455.73296326 -160.6408844 456.7585144 C-168.24686752 476.12343376 -168.24686752 476.12343376 -176 480 C-181.35531529 480.48903328 -186.30246323 480.70463791 -191.3125 478.625 C-198.53771485 471.5678134 -203.47647563 462.13673111 -208.6875 453.5625 C-210.10493207 451.24236261 -211.52498678 448.92383557 -212.9453125 446.60546875 C-213.29459305 446.03483704 -213.6438736 445.46420532 -214.0037384 444.87628174 C-216.98190653 440.01596749 -220.00856359 435.18796188 -223.0625 430.375 C-227.5051139 423.37021169 -231.91878907 416.3480813 -236.3125 409.3125 C-236.94293213 408.30300293 -237.57336426 407.29350586 -238.22290039 406.25341797 C-239.5076015 404.19587228 -240.79218745 402.13825468 -242.07666016 400.08056641 C-244.59449671 396.04780916 -247.11424916 392.01625126 -249.63427734 387.98486328 C-250.87311785 386.00291301 -252.11172652 384.0208178 -253.35009766 382.03857422 C-256.6081156 376.82386078 -259.86980909 371.61149205 -263.13671875 366.40234375 C-264.15378906 364.7790918 -264.15378906 364.7790918 -265.19140625 363.12304688 C-266.48585979 361.05724088 -267.78136858 358.99209558 -269.078125 356.92773438 C-270.22976104 355.08891331 -271.37275581 353.24464047 -272.50537109 351.39404297 C-273.39787968 349.96445473 -274.32312948 348.55339535 -275.31103516 347.18798828 C-279.04969175 341.7494957 -279.0396267 336.30161784 -278 330 C-275.66648907 323.18666264 -272.11539779 316.83185037 -268.8125 310.453125 C-267.86874887 308.5880366 -266.92713112 306.72186731 -265.98754883 304.85467529 C-263.52297171 299.97108124 -261.02990284 295.10260402 -258.53039551 290.23681641 C-255.97928729 285.25791269 -253.45569959 280.26510636 -250.9296875 275.2734375 C-245.9798008 265.5019069 -240.99967005 255.74614138 -236 246 C-237.53856659 246.7892688 -237.53856659 246.7892688 -239.10821533 247.59448242 C-248.80433037 252.56448495 -258.51321183 257.50870501 -268.23497391 262.42835999 C-273.23195084 264.95808135 -278.22409409 267.49647982 -283.20605469 270.05566406 C-288.01949636 272.52786267 -292.84448879 274.97601084 -297.67818451 277.40835571 C-299.51471246 278.337655 -301.34701552 279.27535564 -303.1747818 280.22177124 C-322.36917583 290.14674352 -322.36917583 290.14674352 -332 288 C-335.48253326 286.59311702 -338.45217558 284.84763825 -341.5625 282.75 C-342.84302246 281.93462769 -342.84302246 281.93462769 -344.14941406 281.1027832 C-345.9188595 279.97317315 -347.68112238 278.83223358 -349.43603516 277.68017578 C-352.5823484 275.61838491 -355.76713484 273.62245617 -358.95556641 271.62670898 C-361.30036948 270.15590519 -363.63720857 268.6731082 -365.97265625 267.1875 C-371.52675008 263.65940697 -377.10604121 260.17208944 -382.6875 256.6875 C-383.69651367 256.05739014 -384.70552734 255.42728027 -385.74511719 254.77807617 C-387.80314184 253.49303462 -389.86124773 252.20812317 -391.91943359 250.92333984 C-397.94597297 247.16069305 -403.97014015 243.39424911 -409.99438477 239.62792969 C-415.01799804 236.48750657 -420.04286261 233.34912182 -425.0703125 230.21484375 C-430.05369557 227.10764269 -435.03131945 223.99136089 -440.00683594 220.87158203 C-443.08546574 218.94655951 -446.17151336 217.03379083 -449.2578125 215.12109375 C-451.25548039 213.87283112 -453.25288627 212.62414906 -455.25 211.375 C-456.17312988 210.8070874 -457.09625977 210.2391748 -458.04736328 209.65405273 C-463.17343708 206.43083235 -467.22176939 203.55646121 -470 198 C-470.50502343 192.46957948 -470.73807257 187.58969476 -468.375 182.5 C-463.1920035 177.04421421 -457.13185948 174.65007528 -450.2265625 172.0078125 C-448.77131416 171.44078613 -448.77131416 171.44078613 -447.28666687 170.86230469 C-444.06860956 169.609997 -440.84679472 168.36765728 -437.625 167.125 C-435.33717377 166.23631185 -433.0496635 165.34680992 -430.76245117 164.45654297 C-425.94765314 162.58292472 -421.13166541 160.71241097 -416.31494141 158.84375 C-405.79313129 154.75784063 -395.29007982 150.62428309 -384.78656006 146.49163818 C-378.91703397 144.182663 -373.04632017 141.87671106 -367.17578125 139.5703125 C-364.81070369 138.64096566 -362.44563207 137.71160368 -360.08056641 136.78222656 C-349.55228701 132.6451651 -339.02361151 128.5091119 -328.4949646 124.37298584 C-322.66329339 122.08203216 -316.83164801 119.79101274 -311 117.5 C-308.66666679 116.58333302 -306.33333346 115.66666635 -304 114.75 C-302.845 114.29625 -301.69 113.8425 -300.5 113.375 C-241 90 -181.5 66.625 -122 43.25 C-120.84525681 42.79635071 -119.69051361 42.34270142 -118.5007782 41.87530518 C-116.16485137 40.95762 -113.82892404 40.03993608 -111.49299622 39.12225342 C-105.69933939 36.84618025 -99.90569086 34.57008597 -94.11206055 32.29394531 C-83.13875115 27.98289317 -72.16535248 23.67206861 -61.19168091 19.36193848 C-56.62130416 17.56682919 -52.05096691 15.77161938 -47.4806385 13.97638702 C-44.35504578 12.74865831 -41.22942285 11.52100663 -38.10375977 10.29345703 C-34.65896219 8.940569 -31.21423881 7.58749221 -27.76953125 6.234375 C-26.74833694 5.83337585 -25.72714264 5.43237671 -24.67500305 5.01922607 C-23.26156868 4.46395233 -23.26156868 4.46395233 -21.81958008 3.89746094 C-21.00475662 3.57743103 -20.18993317 3.25740112 -19.35041809 2.92767334 C-17.68633012 2.27088379 -16.03022283 1.59370498 -14.38017273 0.90240479 C-9.7547357 -0.85125639 -4.85851472 -0.52738287 0 0 Z " fill="#00C3C0" transform="translate(486,16)"/>
</svg>
